name rise43.5482peak65.4966fall89.1036.mot
datacolumns 19
datarows 27
range 20.69492200000000 20.73825000000000
endheader
time	ground_force1_vx	ground_force1_vy	ground_force1_vz	ground_force1_px	ground_force1_py	ground_force1_pz	ground_force2_vx	ground_force2_vy	ground_force2_vz	ground_force2_px	ground_force2_py	ground_force2_pz	ground_torque1_x	ground_torque1_y	ground_torque1_z	ground_torque2_x	ground_torque2_y	ground_torque2_z	
20.69492200000000	10.35375100000000	703.72103900000002	45.49397600000000	0.22573100000000	0.00000000000000	0.13076300000000	0.00000000000000	0.00000000000000	0.00000000000000	0.00000000000000	0.00000000000000	0.00000000000000	0.00000000000000	16.01451800000000	0.00000000000000	0.00000000000000	0.00000000000000	0.00000000000000	
20.69658100000000	9.93069000000000	704.32420400000001	45.46152800000000	0.22501200000000	0.00000000000000	0.13071700000000	0.00000000000000	0.00000000000000	0.00000000000000	0.00000000000000	0.00000000000000	0.00000000000000	0.00000000000000	16.07192200000000	0.00000000000000	0.00000000000000	0.00000000000000	0.00000000000000	
20.69824600000000	9.49991700000000	704.93821300000002	45.42771600000000	0.22425200000000	0.00000000000000	0.13067200000000	0.00000000000000	0.00000000000000	0.00000000000000	0.00000000000000	0.00000000000000	0.00000000000000	0.00000000000000	16.12906600000000	0.00000000000000	0.00000000000000	0.00000000000000	0.00000000000000	
20.69991400000000	9.06151100000000	705.56177400000001	45.39239800000000	0.22345200000000	0.00000000000000	0.13062800000000	0.00000000000000	0.00000000000000	0.00000000000000	0.00000000000000	0.00000000000000	0.00000000000000	0.00000000000000	16.18589600000000	0.00000000000000	0.00000000000000	0.00000000000000	0.00000000000000	
20.70158500000000	8.61558800000000	706.19368299999996	45.35545000000000	0.22261100000000	0.00000000000000	0.13058700000000	0.00000000000000	0.00000000000000	0.00000000000000	0.00000000000000	0.00000000000000	0.00000000000000	0.00000000000000	16.24237500000000	0.00000000000000	0.00000000000000	0.00000000000000	0.00000000000000	
20.70324700000000	8.16229600000000	706.83282499999996	45.31676800000000	0.22173200000000	0.00000000000000	0.13054800000000	0.00000000000000	0.00000000000000	0.00000000000000	0.00000000000000	0.00000000000000	0.00000000000000	0.00000000000000	16.29847600000000	0.00000000000000	0.00000000000000	0.00000000000000	0.00000000000000	
20.70492700000000	7.70181800000000	707.47817199999997	45.27626900000000	0.22081500000000	0.00000000000000	0.13051000000000	0.00000000000000	0.00000000000000	0.00000000000000	0.00000000000000	0.00000000000000	0.00000000000000	0.00000000000000	16.35418700000000	0.00000000000000	0.00000000000000	0.00000000000000	0.00000000000000	
20.70658200000000	7.23436600000000	708.12879099999998	45.23388900000000	0.21986100000000	0.00000000000000	0.13047400000000	0.00000000000000	0.00000000000000	0.00000000000000	0.00000000000000	0.00000000000000	0.00000000000000	0.00000000000000	16.40950600000000	0.00000000000000	0.00000000000000	0.00000000000000	0.00000000000000	
20.70824500000000	6.76018300000000	708.78383899999994	45.18958600000000	0.21887400000000	0.00000000000000	0.13044000000000	0.00000000000000	0.00000000000000	0.00000000000000	0.00000000000000	0.00000000000000	0.00000000000000	0.00000000000000	16.46444300000000	0.00000000000000	0.00000000000000	0.00000000000000	0.00000000000000	
20.70992500000000	6.27953900000000	709.44256700000005	45.14333500000000	0.21785300000000	0.00000000000000	0.13040700000000	0.00000000000000	0.00000000000000	0.00000000000000	0.00000000000000	0.00000000000000	0.00000000000000	0.00000000000000	16.51901800000000	0.00000000000000	0.00000000000000	0.00000000000000	0.00000000000000	
20.71158000000000	5.79273000000000	710.10431900000003	45.09513400000000	0.21680300000000	0.00000000000000	0.13037500000000	0.00000000000000	0.00000000000000	0.00000000000000	0.00000000000000	0.00000000000000	0.00000000000000	0.00000000000000	16.57326100000000	0.00000000000000	0.00000000000000	0.00000000000000	0.00000000000000	
20.71324700000000	5.30007600000000	710.76853400000005	45.04499800000000	0.21572300000000	0.00000000000000	0.13034500000000	0.00000000000000	0.00000000000000	0.00000000000000	0.00000000000000	0.00000000000000	0.00000000000000	0.00000000000000	16.62721100000000	0.00000000000000	0.00000000000000	0.00000000000000	0.00000000000000	
20.71491800000000	4.80191500000000	711.43474200000003	44.99296200000000	0.21461800000000	0.00000000000000	0.13031700000000	0.00000000000000	0.00000000000000	0.00000000000000	0.00000000000000	0.00000000000000	0.00000000000000	0.00000000000000	16.68091500000000	0.00000000000000	0.00000000000000	0.00000000000000	0.00000000000000	
20.71658700000000	4.29860800000000	712.10257200000001	44.93907900000000	0.21349000000000	0.00000000000000	0.13028900000000	0.00000000000000	0.00000000000000	0.00000000000000	0.00000000000000	0.00000000000000	0.00000000000000	0.00000000000000	16.73442800000000	0.00000000000000	0.00000000000000	0.00000000000000	0.00000000000000	
20.71825400000000	3.79052800000000	712.77174400000001	44.88342300000000	0.21234000000000	0.00000000000000	0.13026200000000	0.00000000000000	0.00000000000000	0.00000000000000	0.00000000000000	0.00000000000000	0.00000000000000	0.00000000000000	16.78780800000000	0.00000000000000	0.00000000000000	0.00000000000000	0.00000000000000	
20.71992300000000	3.27806500000000	713.44207200000005	44.82608300000000	0.21117300000000	0.00000000000000	0.13023600000000	0.00000000000000	0.00000000000000	0.00000000000000	0.00000000000000	0.00000000000000	0.00000000000000	0.00000000000000	16.84112300000000	0.00000000000000	0.00000000000000	0.00000000000000	0.00000000000000	
20.72158100000000	2.76161900000000	714.11346300000002	44.76716500000000	0.20999000000000	0.00000000000000	0.13021100000000	0.00000000000000	0.00000000000000	0.00000000000000	0.00000000000000	0.00000000000000	0.00000000000000	0.00000000000000	16.89444200000000	0.00000000000000	0.00000000000000	0.00000000000000	0.00000000000000	
20.72324900000000	2.24159900000000	714.78591700000004	44.70679500000000	0.20879400000000	0.00000000000000	0.13018600000000	0.00000000000000	0.00000000000000	0.00000000000000	0.00000000000000	0.00000000000000	0.00000000000000	0.00000000000000	16.94783800000000	0.00000000000000	0.00000000000000	0.00000000000000	0.00000000000000	
20.72492400000000	1.71842100000000	715.45952399999999	44.64511200000000	0.20758900000000	0.00000000000000	0.13016200000000	0.00000000000000	0.00000000000000	0.00000000000000	0.00000000000000	0.00000000000000	0.00000000000000	0.00000000000000	17.00138600000000	0.00000000000000	0.00000000000000	0.00000000000000	0.00000000000000	
20.72658100000000	1.19250300000000	716.13446399999998	44.58227200000000	0.20637700000000	0.00000000000000	0.13013800000000	0.00000000000000	0.00000000000000	0.00000000000000	0.00000000000000	0.00000000000000	0.00000000000000	0.00000000000000	17.05516400000000	0.00000000000000	0.00000000000000	0.00000000000000	0.00000000000000	
20.72825400000000	0.66426600000000	716.81100500000002	44.51844500000000	0.20516000000000	0.00000000000000	0.13011400000000	0.00000000000000	0.00000000000000	0.00000000000000	0.00000000000000	0.00000000000000	0.00000000000000	0.00000000000000	17.10925000000000	0.00000000000000	0.00000000000000	0.00000000000000	0.00000000000000	
20.72992300000000	0.13412900000000	717.48950100000002	44.45381700000000	0.20394300000000	0.00000000000000	0.13009000000000	0.00000000000000	0.00000000000000	0.00000000000000	0.00000000000000	0.00000000000000	0.00000000000000	0.00000000000000	17.16371900000000	0.00000000000000	0.00000000000000	0.00000000000000	0.00000000000000	
20.73158300000000	-0.39749200000000	718.17038800000000	44.38858600000000	0.20272600000000	0.00000000000000	0.13006600000000	0.00000000000000	0.00000000000000	0.00000000000000	0.00000000000000	0.00000000000000	0.00000000000000	0.00000000000000	17.21864900000000	0.00000000000000	0.00000000000000	0.00000000000000	0.00000000000000	
20.73326000000000	-0.93018600000000	718.85418700000002	44.32296300000000	0.20151300000000	0.00000000000000	0.13004200000000	0.00000000000000	0.00000000000000	0.00000000000000	0.00000000000000	0.00000000000000	0.00000000000000	0.00000000000000	17.27411200000000	0.00000000000000	0.00000000000000	0.00000000000000	0.00000000000000	
20.73493000000000	-1.46355200000000	719.54149500000005	44.25717200000000	0.20030700000000	0.00000000000000	0.13001700000000	0.00000000000000	0.00000000000000	0.00000000000000	0.00000000000000	0.00000000000000	0.00000000000000	0.00000000000000	17.33018000000000	0.00000000000000	0.00000000000000	0.00000000000000	0.00000000000000	
20.73658400000000	-1.99719700000000	720.23298399999999	44.19144700000000	0.19910900000000	0.00000000000000	0.12999200000000	0.00000000000000	0.00000000000000	0.00000000000000	0.00000000000000	0.00000000000000	0.00000000000000	0.00000000000000	17.38692100000000	0.00000000000000	0.00000000000000	0.00000000000000	0.00000000000000	
20.73825000000000	-2.53074300000000	720.92939899999999	44.12603600000000	0.19792200000000	0.00000000000000	0.12996700000000	0.00000000000000	0.00000000000000	0.00000000000000	0.00000000000000	0.00000000000000	0.00000000000000	0.00000000000000	17.44439600000000	0.00000000000000	0.00000000000000	0.00000000000000	0.00000000000000	
